#!OML:ASF X:\für Bonn\!DataBase\2005_08_11_Bastian_Final\c3d\Bastian.ASF
:FULLY-SPECIFIED
:DEGREES
189
root -5.07431 16.9558 -16.1691 169.411 13.4242 -173.593
lowerback 7.35233 -2.72207 -1.76298
upperback 5.56376 -3.30882 1.30353
thorax 1.81935 -1.55305 2.51721
lowerneck -6.17111 -2.78656 -9.78079
upperneck -5.01581 -2.33233 15.5716
head -0.0830592 -0.792438 6.30709
rclavicle 3.38555e-014 -1.15295e-014
rhumerus -50.8995 20.7198 -99.5089
rradius 109.496
rwrist 10.1143
rhand -18.108 16.9152
rfingers 7.12502
rthumb 8.1661 -12.9071
lclavicle 3.38555e-014 -1.15295e-014
lhumerus -11.0599 -47.6628 97.5816
lradius 115.621
lwrist 31.3533
lhand -4.55712 -13.1662
lfingers 7.12502
lthumb 21.2189 15.6924
rfemur -17.6101 12.0985 25.433
rtibia 47.6303
rfoot -189.137 -188.141
rtoes 6.30586
lfemur 15.7606 3.34215 -7.57792
ltibia 35.5806
lfoot -16.1234 -2.64114
ltoes -15.8131
190
root -5.11841 16.9708 -16.1099 169.502 13.3494 -173.511
lowerback 7.56548 -2.63199 -1.76948
upperback 5.56159 -3.18538 1.2998
thorax 1.69264 -1.48737 2.52071
lowerneck -6.23871 -2.89838 -9.561
upperneck -5.23021 -2.44483 15.6115
head -0.120509 -0.842566 6.27983
rclavicle -2.37548e-014 2.46493e-014
rhumerus -50.4924 20.9773 -99.6222
rradius 109.618
rwrist 9.84701
rhand -18.508 17.2551
rfingers 7.12502
rthumb 7.78002 -12.5818
lclavicle -2.37548e-014 2.46493e-014
lhumerus -12.285 -47.5801 98.3441
lradius 115.521
lwrist 31.5172
lhand -4.61043 -13.4673
lfingers 7.12502
lthumb 21.1677 15.3971
rfemur -17.7762 11.4977 25.4058
rtibia 47.4375
rfoot -188.786 -187.973
rtoes 5.76518
lfemur 15.4328 3.39385 -7.51415
ltibia 35.5194
lfoot -16.1974 -3.06107
ltoes -13.6568
191
root -5.15993 16.9859 -16.0519 169.575 13.2456 -173.43
lowerback 7.80229 -2.55996 -1.79424
upperback 5.5485 -3.08776 1.3085
thorax 1.54502 -1.43516 2.54924
lowerneck -6.3008 -3.01203 -9.35138
upperneck -5.42989 -2.56619 15.6003
head -0.155084 -0.898859 6.23781
rclavicle -5.02677e-014 7.95139e-015
rhumerus -50.1147 21.2694 -99.7631
rradius 109.723
rwrist 9.56317
rhand -18.9133 17.5798
rfingers 7.12502
rthumb 7.38881 -12.2712
lclavicle -5.02677e-014 7.95139e-015
lhumerus -13.4774 -47.4287 99.0532
lradius 115.44
lwrist 31.7803
lhand -4.5981 -13.6661
lfingers 7.12502
lthumb 21.1795 15.197
rfemur -17.8817 10.8677 25.4004
rtibia 47.2294
rfoot -188.475 -187.837
rtoes 5.16955
lfemur 15.0881 3.51545 -7.42151
ltibia 35.5121
lfoot -16.2586 -3.43039
ltoes -12.329
192
root -5.19936 17.0012 -15.9959 169.634 13.1366 -173.356
lowerback 8.0211 -2.49013 -1.79953
upperback 5.54072 -2.99191 1.29794
thorax 1.41068 -1.38312 2.54552
lowerneck -6.34195 -3.12313 -9.25335
upperneck -5.62826 -2.67069 15.7499
head -0.188936 -0.943798 6.26668
rclavicle -1.33186e-014 7.95139e-015
rhumerus -49.7957 21.5392 -99.9416
rradius 109.929
rwrist 9.22579
rhand -19.2787 17.9063
rfingers 7.12502
rthumb 7.03617 -11.9567
lclavicle -1.33186e-014 7.95139e-015
lhumerus -14.6711 -47.267 99.7358
lradius 115.333
lwrist 31.9743
lhand -4.56752 -13.8868
lfingers 7.12502
lthumb 21.2089 14.9729
rfemur -17.9447 10.2128 25.3961
rtibia 47.0212
rfoot -188.195 -187.637
rtoes 4.66692
lfemur 14.7453 3.67407 -7.33686
ltibia 35.5452
lfoot -16.2951 -3.72414
ltoes -11.4449
193
root -5.23671 17.0167 -15.9402 169.688 12.9791 -173.294
lowerback 8.23471 -2.43273 -1.79239
upperback 5.52637 -2.91291 1.26465
thorax 1.27149 -1.33911 2.51174
lowerneck -6.36697 -3.24726 -9.16742
upperneck -5.82637 -2.79165 15.9229
head -0.222297 -0.997231 6.30474
rclavicle -3.43401e-014 -1.27222e-014
rhumerus -49.5216 21.7638 -100.148
rradius 110.204
rwrist 8.82964
rhand -19.5399 18.2173
rfingers 7.12502
rthumb 6.78395 -11.654
lclavicle -3.43401e-014 -1.27222e-014
lhumerus -15.8096 -47.1062 100.336
lradius 115.168
lwrist 32.1233
lhand -4.55881 -14.1437
lfingers 7.12502
lthumb 21.2173 14.7151
rfemur -17.9663 9.53337 25.3884
rtibia 46.8132
rfoot -187.979 -187.466
rtoes 4.18937
lfemur 14.3726 3.82233 -7.27154
ltibia 35.6204
lfoot -16.3301 -3.9607
ltoes -10.9396
194
root -5.27209 17.0324 -15.8868 169.757 12.8235 -173.215
lowerback 8.41845 -2.37955 -1.77277
upperback 5.50349 -2.83993 1.24425
thorax 1.14038 -1.29866 2.48311
lowerneck -6.40215 -3.36892 -9.11245
upperneck -5.99747 -2.91002 16.1112
head -0.245414 -1.04843 6.35272
rclavicle 3.72224e-014 2.22639e-014
rhumerus -49.2878 21.9931 -100.381
rradius 110.547
rwrist 8.447
rhand -19.7705 18.4113
rfingers 7.12502
rthumb 6.56142 -11.4671
lclavicle 3.72224e-014 2.22639e-014
lhumerus -16.9217 -46.9455 100.88
lradius 114.991
lwrist 32.277
lhand -4.59291 -14.3689
lfingers 7.12502
lthumb 21.1845 14.4935
rfemur -17.9707 8.89777 25.408
rtibia 46.6158
rfoot -187.797 -187.342
rtoes 3.84193
lfemur 13.9893 3.97066 -7.19606
ltibia 35.7216
lfoot -16.3614 -4.16848
ltoes -10.3638
195
root -5.30604 17.0478 -15.8349 169.78 12.6405 -173.179
lowerback 8.61857 -2.33365 -1.77642
upperback 5.48813 -2.77725 1.21267
thorax 1.00959 -1.26338 2.45677
lowerneck -6.43137 -3.4974 -9.13222
upperneck -6.16537 -3.03381 16.3335
head -0.265262 -1.10157 6.42436
rclavicle 4.08751e-014 -2.38542e-015
rhumerus -49.0606 22.2486 -100.626
rradius 110.964
rwrist 7.95686
rhand -19.8496 18.4622
rfingers 7.12502
rthumb 6.48502 -11.4185
lclavicle 4.08751e-014 -2.38542e-015
lhumerus -17.9953 -46.775 101.372
lradius 114.762
lwrist 32.3813
lhand -4.62059 -14.6333
lfingers 7.12502
lthumb 21.1579 14.2322
rfemur -17.9065 8.25933 25.3905
rtibia 46.4405
rfoot -187.657 -187.203
rtoes 3.62209
lfemur 13.6336 4.10243 -7.17617
ltibia 35.843
lfoot -16.3836 -4.32775
ltoes -9.94921
196
root -5.33768 17.0649 -15.7857 169.857 12.4397 -173.122
lowerback 8.72525 -2.28992 -1.74952
upperback 5.46868 -2.71705 1.18695
thorax 0.924685 -1.23034 2.41553
lowerneck -6.4816 -3.63479 -9.14155
upperneck -6.32342 -3.17104 16.5304
head -0.277622 -1.16069 6.48543
rclavicle -3.97321e-014 1.59028e-015
rhumerus -48.8585 22.4491 -100.872
rradius 111.403
rwrist 7.50112
rhand -19.885 18.4949
rfingers 7.12502
rthumb 6.45085 -11.3869
lclavicle -3.97321e-014 1.59028e-015
lhumerus -18.9799 -46.6223 101.789
lradius 114.499
lwrist 32.4525
lhand -4.69988 -14.8515
lfingers 7.12502
lthumb 21.0817 14.0225
rfemur -17.8441 7.66424 25.4023
rtibia 46.2944
rfoot -187.616 -187.134
rtoes 3.38263
lfemur 13.2141 4.23147 -7.13661
ltibia 35.976
lfoot -16.3911 -4.47338
ltoes -9.77916
197
root -5.36737 17.0804 -15.7384 169.921 12.2258 -173.084
lowerback 8.80661 -2.24121 -1.72041
upperback 5.45229 -2.65043 1.14009
thorax 0.855414 -1.19418 2.34947
lowerneck -6.51138 -3.78127 -9.17437
upperneck -6.47727 -3.31898 16.7658
head -0.288607 -1.22514 6.56262
rclavicle -3.09856e-014 -4.13472e-014
rhumerus -48.6484 22.6349 -101.154
rradius 111.839
rwrist 7.04612
rhand -19.8736 18.4333
rfingers 7.12502
rthumb 6.46186 -11.4481
lclavicle -3.09856e-014 -4.13472e-014
lhumerus -19.8955 -46.4603 102.208
lradius 114.168
lwrist 32.4752
lhand -4.74351 -15.0558
lfingers 7.12502
lthumb 21.0398 13.8228
rfemur -17.7118 7.0735 25.4054
rtibia 46.1913
rfoot -187.715 -187.068
rtoes 3.43028
lfemur 12.8072 4.3368 -7.13188
ltibia 36.1131
lfoot -16.4247 -4.56471
ltoes -10.0718
198
root -5.39584 17.0964 -15.6937 170.005 12 -173.027
lowerback 8.82512 -2.20342 -1.68657
upperback 5.43891 -2.59801 1.12383
thorax 0.82594 -1.16636 2.3108
lowerneck -6.59102 -3.90781 -9.21669
upperneck -6.57847 -3.4486 16.9404
head -0.280093 -1.27893 6.62155
rclavicle -7.95139e-015 -7.95139e-015
rhumerus -48.4304 22.8607 -101.428
rradius 112.28
rwrist 6.62488
rhand -19.8274 18.3121
rfingers 7.12502
rthumb 6.50645 -11.568
lclavicle -7.95139e-015 -7.95139e-015
lhumerus -20.6862 -46.2279 102.572
lradius 113.791
lwrist 32.4954
lhand -4.72945 -15.1862
lfingers 7.12502
lthumb 21.0533 13.6909
rfemur -17.541 6.52329 25.4352
rtibia 46.1299
rfoot -187.974 -187.111
rtoes 3.78559
lfemur 12.388 4.44388 -7.10237
ltibia 36.2542
lfoot -16.467 -4.66432
ltoes -10.6926
199
root -5.42308 17.1124 -15.6505 170.089 11.7402 -173.005
lowerback 8.82243 -2.16014 -1.67214
upperback 5.42261 -2.54046 1.09574
thorax 0.80528 -1.13678 2.26961
lowerneck -6.76523 -4.04707 -9.24877
upperneck -6.55992 -3.61068 17.0848
head -0.218214 -1.34378 6.66517
rclavicle -9.21367e-014 2.06736e-014
rhumerus -48.1691 23.0462 -101.733
rradius 112.687
rwrist 6.26715
rhand -19.762 18.1262
rfingers 7.12502
rthumb 6.56959 -11.7519
lclavicle -9.21367e-014 2.06736e-014
lhumerus -21.4171 -46.0307 102.877
lradius 113.388
lwrist 32.4987
lhand -4.66593 -15.3165
lfingers 7.12502
lthumb 21.1144 13.5538
rfemur -17.3339 6.00407 25.4335
rtibia 46.1158
rfoot -188.334 -187.152
rtoes 4.04118
lfemur 11.9578 4.51091 -7.13067
ltibia 36.3899
lfoot -16.5143 -4.721
ltoes -11.6854
200
root -5.44833 17.1268 -15.6088 170.164 11.4862 -172.971
lowerback 8.78746 -2.11741 -1.65354
upperback 5.42229 -2.4817 1.08183
thorax 0.819427 -1.10671 2.23915
lowerneck -6.89576 -4.17423 -9.31303
upperneck -6.60494 -3.74701 17.239
head -0.183837 -1.39774 6.71951
rclavicle -3.59303e-014 -3.33958e-014
rhumerus -47.9491 23.2407 -102.085
rradius 113.075
rwrist 6.034
rhand -19.7401 17.9676
rfingers 7.12502
rthumb 6.59067 -11.9099
lclavicle -3.59303e-014 -3.33958e-014
lhumerus -22.0488 -45.8268 103.092
lradius 112.967
lwrist 32.5016
lhand -4.54478 -15.4331
lfingers 7.12502
lthumb 21.2307 13.4242
rfemur -17.0784 5.5192 25.4502
rtibia 46.1447
rfoot -188.775 -187.148
rtoes 3.92051
lfemur 11.5538 4.59718 -7.12885
ltibia 36.5151
lfoot -16.5643 -4.82317
ltoes -12.5399
201
root -5.47246 17.1407 -15.5682 170.251 11.2214 -172.929
lowerback 8.73985 -2.07446 -1.61745
upperback 5.40029 -2.42397 1.07341
thorax 0.817469 -1.07761 2.20461
lowerneck -7.03001 -4.2909 -9.38568
upperneck -6.59047 -3.8813 17.3694
head -0.132508 -1.45094 6.76682
rclavicle -2.25621e-014 2.8625e-014
rhumerus -47.7768 23.4158 -102.48
rradius 113.394
rwrist 5.92869
rhand -19.815 17.874
rfingers 7.12502
rthumb 6.51842 -12.0056
lclavicle -2.25621e-014 2.8625e-014
lhumerus -22.6659 -45.6345 103.277
lradius 112.535
lwrist 32.5004
lhand -4.37196 -15.5379
lfingers 7.12502
lthumb 21.3967 13.3006
rfemur -16.7983 5.06855 25.4796
rtibia 46.2189
rfoot -189.194 -187.208
rtoes 3.73973
lfemur 11.1477 4.63987 -7.12763
ltibia 36.6228
lfoot -16.6212 -4.93758
ltoes -13.3199
202
root -5.49499 17.153 -15.5277 170.341 10.9291 -172.905
lowerback 8.66851 -2.04386 -1.59191
upperback 5.38573 -2.38321 1.05332
thorax 0.837187 -1.05737 2.1643
lowerneck -7.21014 -4.3976 -9.43488
upperneck -6.55323 -4.00298 17.4838
head -0.0696518 -1.49529 6.80431
rclavicle -1.74931e-014 -2.14687e-014
rhumerus -47.6077 23.6204 -102.913
rradius 113.658
rwrist 5.87551
rhand -19.9304 17.8522
rfingers 7.12502
rthumb 6.40698 -12.0309
lclavicle -1.74931e-014 -2.14687e-014
lhumerus -23.1853 -45.4403 103.342
lradius 112.126
lwrist 32.533
lhand -4.143 -15.5802
lfingers 7.12502
lthumb 21.6166 13.2332
rfemur -16.4925 4.66322 25.4828
rtibia 46.3381
rfoot -189.661 -187.318
rtoes 4.01895
lfemur 10.7417 4.56579 -7.19539
ltibia 36.719
lfoot -16.6817 -4.97394
ltoes -13.9999
203
root -5.5159 17.1644 -15.4885 170.424 10.6429 -172.892
lowerback 8.57379 -2.00038 -1.57857
upperback 5.37425 -2.32596 1.04382
thorax 0.873253 -1.02956 2.13977
lowerneck -7.33038 -4.49996 -9.49893
upperneck -6.56362 -4.11815 17.5667
head -0.0319337 -1.54075 6.83579
rclavicle -2.85256e-014 1.11319e-014
rhumerus -47.4316 23.8527 -103.32
rradius 113.859
rwrist 5.87098
rhand -20.1872 17.8672
rfingers 7.12502
rthumb 6.15905 -12.0233
lclavicle -2.85256e-014 1.11319e-014
lhumerus -23.6732 -45.2994 103.395
lradius 111.692
lwrist 32.5175
lhand -3.92447 -15.6817
lfingers 7.12502
lthumb 21.8265 13.1075
rfemur -16.151 4.32445 25.4786
rtibia 46.5019
rfoot -190.216 -187.415
rtoes 4.01897
lfemur 10.3579 4.45474 -7.28128
ltibia 36.8048
lfoot -16.7482 -5.01745
ltoes -14.4761
